<svg width="32" height="32" viewBox="0 0 32 32" fill="none" xmlns="http://www.w3.org/2000/svg">
  <!-- Background circle -->
  <circle cx="16" cy="16" r="16" fill="url(#gradient)" />
  
  <!-- Heart shape -->
  <path d="M16 24.5C16 24.5 22 18.5 22 13.5C22 10.5 19.5 8 16.5 8C15.5 8 14.5 8.5 14 9.5C13.5 8.5 12.5 8 11.5 8C8.5 8 6 10.5 6 13.5C6 18.5 16 24.5 16 24.5Z" fill="white" opacity="0.9"/>
  
  <!-- Peace symbol inside heart -->
  <circle cx="16" cy="16" r="4" fill="none" stroke="white" stroke-width="1.5" opacity="0.8"/>
  <path d="M16 12L16 20M12 16L20 16" stroke="white" stroke-width="1.5" opacity="0.8"/>
  
  <!-- Small decorative dots -->
  <circle cx="12" cy="10" r="1" fill="white" opacity="0.6"/>
  <circle cx="20" cy="10" r="1" fill="white" opacity="0.6"/>
  <circle cx="12" cy="22" r="1" fill="white" opacity="0.6"/>
  <circle cx="20" cy="22" r="1" fill="white" opacity="0.6"/>
  
  <!-- Gradient definition -->
  <defs>
    <linearGradient id="gradient" x1="0%" y1="0%" x2="100%" y2="100%">
      <stop offset="0%" style="stop-color:#4FD1C7;stop-opacity:1" />
      <stop offset="100%" style="stop-color:#38B2AC;stop-opacity:1" />
    </linearGradient>
  </defs>
</svg>

